# xmcd
#
# Track frame offsets: 
#        150
#        12487
#        22275
#        32920
#        43997
#        55340
#        64260
#        86557
#        110785
#        118482
#        127475
#        142445
#        158645
#        172437
#        185195
#        197052
#        218552
#        230502
#        240562
#        254332
#        267355
#        277507
#        291005
#        305925
#        318525
#
# Disc length: 4380 seconds
#
# Revision: 3
# Processed by: cddbd v1.5.2PL0 Copyright (c) Steve Scherf et al.
# Submitted via: ExactAudioCopy v1.0b1
#
DISCID=a2111a19
DTITLE=Lonnie Donegan - The Very Best Of   CD 1
DYEAR=1999
DGENRE=Folk
TTITLE0=Lost John (mono)
TTITLE1=Stewball (mono)
TTITLE2=Railroad Bill (mono)
TTITLE3=Bring A Little Water, Sylvie (mono)
TTITLE4=Dead Or Alive (mono)
TTITLE5=Wabash Cannonball (mono)
TTITLE6=Nobody's Child (mono)
TTITLE7=Frankie and Johnny (mono)
TTITLE8=Don't You Rock Me Daddy-O (mono)
TTITLE9=Cumberland Gap (mono)
TTITLE10=Gamblin' Man (mono)
TTITLE11=Puttin' On The Style (mono)
TTITLE12=My Dixie Darling (mono)
TTITLE13=Jack O' Diamonds (mono)
TTITLE14=On A Monday (mono)
TTITLE15=Mule Skinner Blues (mono)
TTITLE16=The Grand Coulee Dam (mono)
TTITLE17=Sally. Don't You Grieve (mono)
TTITLE18=Betty, Betty, Betty (mono)
TTITLE19=Lonesome Traveller (mono)
TTITLE20=Light From The Lighthouse (mono)
TTITLE21=Lonnie´s Skiffle Party Medley (mono)
TTITLE22=Tom Dooley (mono)
TTITLE23=Does Your Chewing Gum Lose Its Flavour (mono)
TTITLE24=Fort Worth Jail (mono)
EXTD=
EXTT0=
EXTT1=
EXTT2=
EXTT3=
EXTT4=
EXTT5=
EXTT6=
EXTT7=
EXTT8=
EXTT9=
EXTT10=
EXTT11=
EXTT12=
EXTT13=
EXTT14=
EXTT15=
EXTT16=
EXTT17=
EXTT18=
EXTT19=
EXTT20=
EXTT21=
EXTT22=
EXTT23=
EXTT24=
PLAYORDER=
